<svg width="27" height="18" viewBox="0 0 27 18" fill="none" xmlns="http://www.w3.org/2000/svg">
<path d="M8.48667 0C8.0169 -2.56144e-06 7.55264 0.101128 7.12543 0.29652C6.69822 0.491912 6.31808 0.776985 6.01085 1.13236L0.610851 7.38C0.231215 7.812 0.000488281 8.37818 0.000488281 9V13.9091C0.000488281 14.9941 0.431493 16.0346 1.19869 16.8018C1.96588 17.569 3.00642 18 4.0914 18H7.36413C8.4491 18 9.48964 17.569 10.2568 16.8018C11.024 16.0346 11.455 14.9941 11.455 13.9091V11.4545H14.7278V13.9091C14.7278 14.9941 15.1588 16.0346 15.926 16.8018C16.6932 17.569 17.7337 18 18.8187 18H22.0914C23.1764 18 24.2169 17.569 24.9841 16.8018C25.7513 16.0346 26.1823 14.9941 26.1823 13.9091V9C26.1823 8.298 25.8878 7.66636 25.4165 7.21964L20.172 1.13564C19.8648 0.779451 19.4846 0.49364 19.0571 0.297668C18.6295 0.101696 18.1648 0.00016835 17.6945 0H16.3641C16.1471 0 15.939 0.0862012 15.7856 0.23964C15.6322 0.393079 15.546 0.601187 15.546 0.818182C15.546 1.03518 15.6322 1.24328 15.7856 1.39672C15.939 1.55016 16.1471 1.63636 16.3641 1.63636H17.6945C17.9296 1.63645 18.162 1.68721 18.3758 1.7852C18.5895 1.88318 18.7797 2.02609 18.9332 2.20418L22.6756 6.54545H17.1823C16.5313 6.54545 15.907 6.80406 15.4467 7.26437C14.9864 7.72469 14.7278 8.34901 14.7278 9V9.81818H11.455V9C11.455 8.34901 11.1964 7.72469 10.7361 7.26437C10.2758 6.80406 9.65148 6.54545 9.00049 6.54545H3.49576L7.24958 2.20255C7.40311 2.02496 7.59304 1.88249 7.8065 1.78479C8.01995 1.6871 8.25192 1.63648 8.48667 1.63636H9.81867C10.0357 1.63636 10.2438 1.55016 10.3972 1.39672C10.5507 1.24328 10.6369 1.03518 10.6369 0.818182C10.6369 0.601187 10.5507 0.393079 10.3972 0.23964C10.2438 0.0862012 10.0357 0 9.81867 0H8.48667Z" fill="#6197FF"/>
</svg>
